<?xml version="1.0" encoding="utf-8"?>
<!-- Generator: Adobe Illustrator 20.1.0, SVG Export Plug-In . SVG Version: 6.00 Build 0)  -->
<!DOCTYPE svg PUBLIC "-//W3C//DTD SVG 1.1//EN" "http://www.w3.org/Graphics/SVG/1.1/DTD/svg11.dtd">
<svg version="1.1" id="Layer_1" xmlns="http://www.w3.org/2000/svg" xmlns:xlink="http://www.w3.org/1999/xlink" x="0px" y="0px"
	 viewBox="0 0 864 864" style="enable-background:new 0 0 864 864;" xml:space="preserve">
<style type="text/css">
	.st0{fill:#939598;}
	.st1{fill:#064F8C;}
</style>
<g>
	<polygon class="st0" points="16.4,211.4 107.3,585 120.9,585 30,211.4 	"/>
	<polygon class="st0" points="350.7,585 363.3,585 403.3,358.4 390.7,358.4 	"/>
	<polygon class="st0" points="521.3,585 533.9,585 573.9,358.4 561.3,358.4 	"/>
	<polygon class="st0" points="665.3,493 658.8,530.2 689.6,656.9 704.3,656.9 	"/>
	<polygon class="st0" points="193.5,414 197.1,428.9 198.4,428.9 272.1,275.4 260,275.4 	"/>
	<polygon class="st0" points="744.1,275.2 728.3,275.2 695.1,324.9 689.8,355.2 690.6,355.2 	"/>
</g>
<g>
	<polygon class="st1" points="285.7,275.4 193.2,468 130.8,211.4 40.3,211.4 131.2,584.9 137.1,584.9 221.7,584.9 227.6,584.9 
		376.2,275.4 	"/>
	<polygon class="st1" points="847.6,275.2 757.1,275.2 683.7,384.8 673.1,384.8 692.4,275.4 622.8,275.4 588.4,347.1 546.4,585.3 
		637.7,585.3 659.5,461.9 669.7,461.9 717.1,656.9 807.6,656.9 750.5,420.3 	"/>
	<polygon class="st1" points="608.9,275.4 390.1,275.4 355.5,347.4 417.8,347.4 375.9,584.9 457.2,584.9 499.1,347.4 574.3,347.4 	
		"/>
</g>
</svg>
